<svg xmlns="http://www.w3.org/2000/svg" width="163.806" height="150.714" viewBox="0 0 163.806 150.714">
  <g id="icon-nuancier" transform="translate(-1062.233 -3321.509)">
    <g id="Groupe_1550" data-name="Groupe 1550" transform="matrix(0.035, 0.999, -0.999, 0.035, 1223.6, 3408.175)">
      <g id="Groupe_1544" data-name="Groupe 1544" transform="translate(0 0)">
        <path id="Tracé_1338" data-name="Tracé 1338" d="M52.145,15.565a.769.769,0,0,1-.306.531L39.332,25.635l-6.274,4.786H30.412l6.668-5.091,1.279-.973,11.864-9.049L40.024,1.931,28.152,10.98l-1.279.973L13.537,22.128l-1.279.973-9.6,7.319H.217A1.95,1.95,0,0,0,0,30.429l11.285-8.607L27.179,9.7,39.686.162a.813.813,0,0,1,1.126.153l11.18,14.655a.79.79,0,0,1,.153.6" transform="translate(7.169 10.87)" fill="#50cdff" stroke="#50cdff" stroke-width="2"/>
        <path id="Tracé_1339" data-name="Tracé 1339" d="M27.074,14.655,16.867,1.279,15.894,0,0,12.121.973,13.4l5.582,7.32H8.582l-6.33-8.293L15.588,2.252,25.8,15.628,19.127,20.72h2.646l6.274-4.786Z" transform="translate(18.454 20.571)" fill="#50cdff" stroke="#50cdff" stroke-width="2"/>
        <path id="Tracé_1340" data-name="Tracé 1340" d="M6.25.659,2.622,8.719A6.719,6.719,0,0,0,0,10.625L4.786,0Z" transform="translate(2.319 33.039)" fill="#50cdff" stroke="#50cdff" stroke-width="2"/>
        <path id="Tracé_1341" data-name="Tracé 1341" d="M32.93,8.7,27.774,20.161l-.314.7-.989,2.2-.732-.33-.74-.33.008-.024.072-.161h.008L31.136,8.771,15.789,1.87l-6.121,13.6-.659,1.472L2.123,32.234,1.464,33.7,0,33.038,5.719,20.33,8.2,14.812,14.655.471a.8.8,0,0,1,.45-.418.805.805,0,0,1,.611.016l16.81,7.569a.8.8,0,0,1,.4,1.062" transform="translate(7.105 0)" fill="#50cdff" stroke="#50cdff" stroke-width="2"/>
        <path id="Tracé_1342" data-name="Tracé 1342" d="M25.755,7.9l-.581-.288-.659,1.448-1.044-.42L9.016,2.131,2.131,17.422,8.309,20.2l.434.193L8.084,21.87l-1.231-.555L1.472,18.886l-1.464-.66H0L5.727,5.518,8.212,0,9.676.659,24.934,7.528l.08.04Z" transform="translate(7.097 14.812)" fill="#50cdff" stroke="#50cdff" stroke-width="2"/>
        <path id="Tracé_1343" data-name="Tracé 1343" d="M60.134,20.043H7.384A7.393,7.393,0,0,1,0,12.659V7.384A7.393,7.393,0,0,1,7.384,0h52.75a.8.8,0,0,1,.8.8V19.239a.8.8,0,0,1-.8.8M7.384,1.609A5.782,5.782,0,0,0,1.609,7.384v5.274a5.782,5.782,0,0,0,5.776,5.776H59.33V1.609Z" transform="translate(0 40.489)" fill="#50cdff" stroke="#50cdff" stroke-width="2"/>
        <path id="Tracé_1344" data-name="Tracé 1344" d="M19.989,20.043H0V0H19.989ZM1.609,18.434H18.381V1.609H1.609Z" transform="translate(24.418 40.489)" fill="#50cdff" stroke="#50cdff" stroke-width="2"/>
        <path id="Tracé_1345" data-name="Tracé 1345" d="M2.64,5.281a2.64,2.64,0,1,1,2.64-2.64,2.643,2.643,0,0,1-2.64,2.64m0-4.289A1.649,1.649,0,1,0,4.289,2.64,1.651,1.651,0,0,0,2.64.991" transform="translate(7.85 47.87)" fill="#50cdff" stroke="#50cdff" stroke-width="2"/>
      </g>
    </g>
    <path id="pointillés" d="M0,47.579S17.128-5.207,96.085.421" transform="translate(1101.343 3323.93) rotate(50)" fill="none" stroke="#4fcbff" stroke-linecap="round" stroke-width="3" stroke-dasharray="7"/>
  </g>
</svg>
