<svg xmlns="http://www.w3.org/2000/svg" width="34.83" height="29.661" viewBox="0 0 34.83 29.661">
  <g id="icon-clair" transform="translate(31.5 238.5)">
    <g id="Groupe_1497" data-name="Groupe 1497" transform="translate(-30 -237)">
      <path id="Tracé_1280" data-name="Tracé 1280" d="M11.524,1C10.8,6.266,8.876,10.755,1,11.524c7.876.769,9.8,5.259,10.524,10.524.722-5.266,1.947-9.755,9.823-10.524C13.471,10.755,12.246,6.266,11.524,1Z" transform="translate(-1 -1)" fill="none" stroke="#4fcbff" stroke-linecap="round" stroke-linejoin="round" stroke-width="3"/>
      <path id="Tracé_1281" data-name="Tracé 1281" d="M7.665,1C7.208,4.335,5.988,7.178,1,7.665c4.988.487,6.208,3.33,6.665,6.665C8.123,11,8.9,8.152,13.886,7.665,8.9,7.178,8.123,4.335,7.665,1Z" transform="translate(17.944 12.331)" fill="none" stroke="#4fcbff" stroke-linecap="round" stroke-linejoin="round" stroke-width="3"/>
    </g>
  </g>
</svg>
