<svg xmlns="http://www.w3.org/2000/svg" width="38.307" height="44.908" viewBox="0 0 38.307 44.908">
  <g id="picto-tarifs-2" transform="translate(0.142 0.142)">
    <g id="Groupe_1555" data-name="Groupe 1555">
      <path id="Tracé_1347" data-name="Tracé 1347" d="M47.929,61.608,44.912,64.43a.314.314,0,0,1-.438-.012l-3.582-3.825a.3.3,0,0,0-.432-.018L39.1,61.852a.312.312,0,0,1-.517-.152l-.754-3.223-.28-1.21-.195-.845-.517-2.214-.116-.511-.2-.857a.306.306,0,0,1,.389-.365l.5.152.347.1,1.782.541,1.721.523.036.012,4.318,1.307a.308.308,0,0,1,.122.517l-1.368,1.277a.314.314,0,0,0-.012.438l3.582,3.825a.314.314,0,0,1-.012.438" transform="translate(-14.308 -20.558)" fill="#a7e6ff" stroke="#707070" stroke-width="1.5"/>
      <path id="Tracé_1348" data-name="Tracé 1348" d="M14.29,7.645A6.645,6.645,0,1,1,7.645,1,6.645,6.645,0,0,1,14.29,7.645" transform="translate(-0.392 -0.392)" fill="#a7e6ff" stroke="#707070" stroke-width="1.5"/>
      <path id="Tracé_1349" data-name="Tracé 1349" d="M27.109,15.06c-.03-.3-.043-.608-.043-.918A10.478,10.478,0,1,1,38.189,24.6h-.006" transform="translate(-10.607 -1.436)" fill="none" stroke="#000" stroke-linecap="round" stroke-linejoin="round" stroke-width="1.5"/>
      <circle id="Ellipse_75" data-name="Ellipse 75" cx="6.645" cy="6.645" r="6.645" transform="translate(0.608 0.608)" fill="none" stroke="#000" stroke-linecap="round" stroke-linejoin="round" stroke-width="1.5"/>
      <path id="Tracé_1350" data-name="Tracé 1350" d="M27.224,40.843a12.333,12.333,0,0,0,.529-3.57,12.186,12.186,0,1,0-4.938,9.8" transform="translate(-1.327 -9.833)" fill="none" stroke="#000" stroke-linecap="round" stroke-linejoin="round" stroke-width="1.5"/>
      <path id="Tracé_1351" data-name="Tracé 1351" d="M12.63,8.88A1.975,1.975,0,0,0,10.655,6.9,1.862,1.862,0,0,0,8.68,8.88c0,1.284,3.95.592,3.95,2.158a1.73,1.73,0,0,1-1.975,1.975A1.975,1.975,0,0,1,8.68,11.038" transform="translate(-3.402 -2.706)" fill="none" stroke="#000" stroke-linecap="round" stroke-linejoin="round" stroke-width="1"/>
      <line id="Ligne_25" data-name="Ligne 25" y1="1.311" transform="translate(7.253 2.889)" fill="none" stroke="#000" stroke-linecap="round" stroke-linejoin="round" stroke-width="1"/>
      <line id="Ligne_26" data-name="Ligne 26" y1="1.311" transform="translate(7.253 10.307)" fill="none" stroke="#000" stroke-linecap="round" stroke-linejoin="round" stroke-width="1"/>
      <path id="Tracé_1352" data-name="Tracé 1352" d="M45.3,16.49a2.828,2.828,0,0,0-2.828-2.828,2.666,2.666,0,0,0-2.828,2.828c0,1.839,5.657.849,5.657,3.09s-1.266,2.828-2.828,2.828a2.828,2.828,0,0,1-2.828-2.828" transform="translate(-15.537 -5.354)" fill="none" stroke="#000" stroke-linecap="round" stroke-linejoin="round" stroke-width="1.5"/>
      <line id="Ligne_27" data-name="Ligne 27" y1="1.877" transform="translate(26.939 6.431)" fill="none" stroke="#000" stroke-linecap="round" stroke-linejoin="round" stroke-width="1.5"/>
      <line id="Ligne_28" data-name="Ligne 28" y1="1.877" transform="translate(26.939 17.055)" fill="none" stroke="#000" stroke-linecap="round" stroke-linejoin="round" stroke-width="1.5"/>
      <path id="Tracé_1353" data-name="Tracé 1353" d="M24.67,39.686a3.526,3.526,0,0,0-3.527-3.527,3.325,3.325,0,0,0-3.526,3.527c0,2.293,7.053,1.058,7.053,3.853s-1.579,3.526-3.527,3.526a3.527,3.527,0,0,1-3.526-3.526" transform="translate(-6.904 -14.17)" fill="none" stroke="#000" stroke-linecap="round" stroke-linejoin="round" stroke-width="1.5"/>
      <line id="Ligne_29" data-name="Ligne 29" y1="2.34" transform="translate(14.24 19.649)" fill="none" stroke="#000" stroke-linecap="round" stroke-linejoin="round" stroke-width="1.5"/>
      <line id="Ligne_30" data-name="Ligne 30" y1="2.34" transform="translate(14.24 32.895)" fill="none" stroke="#000" stroke-linecap="round" stroke-linejoin="round" stroke-width="1.5"/>
      <path id="Tracé_1354" data-name="Tracé 1354" d="M47.929,61.608,44.912,64.43a.314.314,0,0,1-.438-.012l-3.582-3.825a.3.3,0,0,0-.432-.018L39.1,61.852a.312.312,0,0,1-.517-.152l-.754-3.223-.28-1.21-.195-.845-.517-2.214-.116-.511-.2-.857a.306.306,0,0,1,.389-.365l.5.152.347.1,1.782.541,1.721.523.036.012,4.318,1.307a.308.308,0,0,1,.122.517l-1.368,1.277a.314.314,0,0,0-.012.438l3.582,3.825A.314.314,0,0,1,47.929,61.608Z" transform="translate(-14.308 -20.558)" fill="none" stroke="#000" stroke-linecap="round" stroke-linejoin="round" stroke-width="1.5"/>
    </g>
  </g>
</svg>
