<svg xmlns="http://www.w3.org/2000/svg" width="51.677" height="48.409" viewBox="0 0 51.677 48.409">
  <g id="picto-ai" transform="translate(0.75 0.895)">
    <path id="Tracé_1301" data-name="Tracé 1301" d="M9.92,54.083l-2.5-1.615a1.26,1.26,0,0,1-.374-1.743l16.341-25.28a1.261,1.261,0,0,1,1.743-.375l2.5,1.615a1.261,1.261,0,0,1,.375,1.743L11.663,53.708A1.261,1.261,0,0,1,9.92,54.083Z" transform="translate(-2.634 -7.673)" fill="none" stroke="#000" stroke-linecap="round" stroke-linejoin="round" stroke-width="1.5"/>
    <line id="Ligne_14" data-name="Ligne 14" y1="1.091" x2="5.437" transform="translate(12.265 16.283)" fill="none" stroke="#000" stroke-linecap="round" stroke-linejoin="round" stroke-width="1.5"/>
    <line id="Ligne_15" data-name="Ligne 15" x2="4.468" y2="2.93" transform="translate(14.447 6.672)" fill="none" stroke="#000" stroke-linecap="round" stroke-linejoin="round" stroke-width="1.5"/>
    <line id="Ligne_16" data-name="Ligne 16" x2="1.289" y2="5.78" transform="translate(23.196)" fill="none" stroke="#000" stroke-linecap="round" stroke-linejoin="round" stroke-width="1.5"/>
    <line id="Ligne_17" data-name="Ligne 17" x1="3.163" y2="4.792" transform="translate(31.066 2.211)" fill="none" stroke="#000" stroke-linecap="round" stroke-linejoin="round" stroke-width="1.5"/>
    <line id="Ligne_18" data-name="Ligne 18" y1="1.252" x2="5.983" transform="translate(34.891 11.316)" fill="none" stroke="#000" stroke-linecap="round" stroke-linejoin="round" stroke-width="1.5"/>
    <line id="Ligne_19" data-name="Ligne 19" x2="4.704" y2="3.054" transform="translate(33.65 19.19)" fill="none" stroke="#000" stroke-linecap="round" stroke-linejoin="round" stroke-width="1.5"/>
    <line id="Ligne_20" data-name="Ligne 20" x2="1.253" y2="5.665" transform="translate(28.076 22.989)" fill="none" stroke="#000" stroke-linecap="round" stroke-linejoin="round" stroke-width="1.5"/>
    <path id="Tracé_1303" data-name="Tracé 1303" d="M57.377,48.871c.522-3.794,1.908-7.028,7.582-7.582-5.674-.554-7.06-3.789-7.582-7.582-.52,3.794-1.4,7.028-7.077,7.582,5.674.554,6.557,3.788,7.077,7.582" transform="translate(-14.782 -10.143)" fill="none" stroke="#707070" stroke-width="1.5"/>
    <path id="Tracé_1304" data-name="Tracé 1304" d="M57.377,48.871c.522-3.794,1.908-7.028,7.582-7.582-5.674-.554-7.06-3.789-7.582-7.582-.52,3.794-1.4,7.028-7.077,7.582C55.974,41.843,56.857,45.077,57.377,48.871Z" transform="translate(-14.782 -10.143)" fill="#a7e6ff" stroke="#000" stroke-linecap="round" stroke-linejoin="round" stroke-width="1.5"/>
    <path id="Tracé_1305" data-name="Tracé 1305" d="M41.385,62.184c.329-2.4,1.208-4.451,4.8-4.8-3.594-.351-4.473-2.4-4.8-4.8-.33,2.4-.89,4.451-4.482,4.8,3.592.351,4.152,2.4,4.482,4.8" transform="translate(-11.037 -15.419)" fill="none" stroke="#707070" stroke-width="1.5"/>
    <path id="Tracé_1306" data-name="Tracé 1306" d="M41.385,62.184c.329-2.4,1.208-4.451,4.8-4.8-3.594-.351-4.473-2.4-4.8-4.8-.33,2.4-.89,4.451-4.482,4.8C40.5,57.733,41.055,59.781,41.385,62.184Z" transform="translate(-11.037 -15.419)" fill="#a7e6ff" stroke="#000" stroke-linecap="round" stroke-linejoin="round" stroke-width="1.5"/>
    <path id="Tracé_1307" data-name="Tracé 1307" d="M6.614,20.2c.414-3.01,1.514-5.576,6.016-6.016-4.5-.439-5.6-3.006-6.016-6.015C6.2,11.182,5.5,13.748,1,14.187c4.5.44,5.2,3.006,5.614,6.016" transform="translate(-1 -3.005)" fill="none" stroke="#707070" stroke-width="1.5"/>
    <path id="Tracé_1308" data-name="Tracé 1308" d="M6.614,20.2c.414-3.01,1.514-5.576,6.016-6.016-4.5-.439-5.6-3.006-6.016-6.015C6.2,11.182,5.5,13.748,1,14.187,5.5,14.627,6.2,17.193,6.614,20.2Z" transform="translate(-1 -3.005)" fill="#a7e6ff" stroke="#000" stroke-linecap="round" stroke-linejoin="round" stroke-width="1.5"/>
    <path id="Rectangle_250" data-name="Rectangle 250" d="M1.757,0H7.4A1.757,1.757,0,0,1,9.159,1.757V3.74A1.757,1.757,0,0,1,7.4,5.5H1.758A1.758,1.758,0,0,1,0,3.74V1.757A1.757,1.757,0,0,1,1.757,0Z" transform="translate(21.555 16.692) rotate(-57.121)" fill="none" stroke="#000" stroke-linecap="round" stroke-linejoin="round" stroke-width="1.5"/>
  </g>
</svg>
