<svg xmlns="http://www.w3.org/2000/svg" width="48.188" height="55.738" viewBox="0 0 48.188 55.738">
  <g id="picto-millions-images" transform="translate(0.234)">
    <path id="Tracé_1289" data-name="Tracé 1289" d="M60.482,56.594,55.809,51.1H54.332l-1.344,1.742-1.706-1.12-4.1-5.17L45.89,47.1,40.628,55.77v1.35l20.3.431Z" transform="translate(-14.034 -11.183)" fill="#a7e6ff"/>
    <path id="Tracé_1290" data-name="Tracé 1290" d="M41.076,33.193l4.673-5.49h1.478l1.344,1.741,1.706-1.12,4.1-5.169,1.291.548,5.262,8.665v1.35l-20.3.431Z" transform="translate(-14.034 -8.434)" fill="#a7e6ff"/>
    <path id="Tracé_1291" data-name="Tracé 1291" d="M9.43,54.951,15.344,46.4l.513.1,2.713,3.94,4.109-6.167.98-.44,1.508,1.629,4.274,5.708V57L9.066,56.839V55.7Z" transform="translate(-7.627 -22.418)" fill="#a7e6ff"/>
    <g id="Groupe_1517" data-name="Groupe 1517">
      <path id="Tracé_1293" data-name="Tracé 1293" d="M28.175,50.808H8.855V18.558h19.32Zm.442-33.844H8.412a1.151,1.151,0,0,0-1.151,1.151V51.251A1.15,1.15,0,0,0,8.412,52.4H28.617a1.151,1.151,0,0,0,1.152-1.151V18.115a1.152,1.152,0,0,0-1.152-1.151" transform="translate(-7.261 -16.964)"/>
      <path id="Tracé_1294" data-name="Tracé 1294" d="M59.928,32.157H41.21V18.6H59.928Zm.814-15.147H40.4a.78.78,0,0,0-.78.78V32.97a.78.78,0,0,0,.78.78H60.742a.78.78,0,0,0,.78-.78V17.79a.78.78,0,0,0-.78-.78" transform="translate(-13.828 -7.186)"/>
      <path id="Tracé_1295" data-name="Tracé 1295" d="M59.928,55.482H41.21V41.929H59.928Zm.814-15.147H40.4a.78.78,0,0,0-.78.78V56.3a.78.78,0,0,0,.78.78H60.742a.78.78,0,0,0,.78-.78V41.115a.78.78,0,0,0-.78-.78" transform="translate(-13.828 -9.921)"/>
      <path id="Tracé_1296" data-name="Tracé 1296" d="M8.272,57.758,14.908,47.8a.5.5,0,0,1,.817-.025L18.409,51.2" transform="translate(-7.466 -23.177)" fill="none" stroke="#000" stroke-linecap="round" stroke-linejoin="round" stroke-width="1.5"/>
      <path id="Tracé_1297" data-name="Tracé 1297" d="M15.509,56.955,24.2,43.914a.656.656,0,0,1,1.07-.033l5.213,6.654" transform="translate(-8.935 -22.375)" fill="none" stroke="#000" stroke-linecap="round" stroke-linejoin="round" stroke-width="1.5"/>
      <path id="Tracé_1298" data-name="Tracé 1298" d="M25.736,30.224a2.353,2.353,0,0,1-2.352,2.359H15.51a3.4,3.4,0,1,1,2.964-5.037,1.925,1.925,0,0,1,3.818.351c0,.088-.007.167-.015.255a2.349,2.349,0,0,1,3.459,2.072Z" transform="translate(-8.246 -18.756)" fill="none" stroke="#000" stroke-linecap="round" stroke-linejoin="round" stroke-width="1.5"/>
      <path id="Tracé_1299" data-name="Tracé 1299" d="M60.63,57.062l-5.121-6.017a.6.6,0,0,0-.859-.053l-1.963,1.795a.6.6,0,0,1-.871-.069L46.881,46.5a.6.6,0,0,0-.972.049l-5.282,7.808" transform="translate(-13.733 -11.125)" fill="none" stroke="#000" stroke-linecap="round" stroke-linejoin="round" stroke-width="1.5"/>
      <path id="Tracé_1300" data-name="Tracé 1300" d="M40.628,33.424l5.121-6.017a.6.6,0,0,1,.859-.053l1.963,1.795a.6.6,0,0,0,.871-.069l4.934-6.219a.6.6,0,0,1,.972.049L60.66,31.06" transform="translate(-14.034 -8.328)" fill="none" stroke="#000" stroke-linecap="round" stroke-linejoin="round" stroke-width="1.5"/>
    </g>
    <path id="Tracé_1328" data-name="Tracé 1328" d="M59.928,32.157H41.21V18.6H59.928Zm.814-15.147H40.4a.78.78,0,0,0-.78.78V32.97a.78.78,0,0,0,.78.78H60.742a.78.78,0,0,0,.78-.78V17.79a.78.78,0,0,0-.78-.78" transform="translate(-39.617 21.988)"/>
    <path id="Tracé_1329" data-name="Tracé 1329" d="M12.115,30.224a2.353,2.353,0,0,0,2.352,2.359h7.874a3.4,3.4,0,1,0-2.964-5.037,1.925,1.925,0,0,0-3.818.351c0,.088.007.167.015.255a2.349,2.349,0,0,0-3.459,2.072Z" transform="translate(-8.246 18.18)" fill="#a7e6ff" stroke="#000" stroke-linecap="round" stroke-linejoin="round" stroke-width="1.5"/>
  </g>
</svg>
